# xmcd CD database file
#
# Track frame offsets:
#	150
#	13568
#	28043
#	38403
#	51118
#	62800
#	74623
#	86043
#	99833
#	113223
#	125993
#	145600
#	160747
#	176238
#	185651
#	199236
#	215321
#	237678
#	255041
#	267493
#	279728
#	290458
#	312488
#	328246
#	341218
#
# Disc length: 4799 seconds
#
# Revision: 0
# Processed by: cddbd v1.5.1PL0 Copyright (c) Steve Scherf et al.
# Submitted via: CDex 1.51
#
DISCID=8612bd19
DTITLE=Various Artist - Martin Scorsese presents 'The Blues' - Highlights - disc 3
DYEAR=1900
DGENRE=Blues
TTITLE0=322 - Bobby 'Blue' Bland-Farther Up The Road
TTITLE1=323 - Otis Rush-So Many Roads, So Many Trains
TTITLE2=324 - Buddy Guy-First Time I Met The Blues
TTITLE3=325 - Jimmy Reed-Big Boss Man
TTITLE4=401 - Freddie King-Hide Away
TTITLE5=402 - Junior Parker-Drivin' Wheel
TTITLE6=403 - John Lee Hooker-Boom Boom
TTITLE7=404 - Albert Collins-Frosty
TTITLE8=405 - Muddy Waters-You Can't Lose What You Ain't Never Had
TTITLE9=406 - Howlin' Wolf-Killing Floor
TTITLE10=407 - Son House-Death Letter Blues
TTITLE11=408 - Mississippi Fred Mcdowell-You Gotta Move
TTITLE12=409 - Bob Dylan-Highway 61 Revisited
TTITLE13=410 - Junior Wells-Hoodoo Man Blues
TTITLE14=411 - Koko Taylor-Wang Dang Doodle
TTITLE15=412 - John Mayall's Bluesbreakers With Eric Clapton-All Your Love
TTITLE16=413 - Paul Butterfield Blues Band-I've Got A Mind To Give Up Livin'
TTITLE17=414 - Jimi Hendrix-Red House
TTITLE18=415 - Albert King-Born Under The Bad Sign
TTITLE19=416 - Magic Sam-Mama Talk To Your Daughter
TTITLE20=417 - Etta James-Tell Mama
TTITLE21=418 - The Jeff Beck Group-Ain't Superstitious
TTITLE22=419 - Taj Mahal-She Caught The Katy (And Left Me A Mule To Ride)
TTITLE23=420 - Fleetwood Mac-Black Magic Woman
TTITLE24=421 - Janis Joplin-One Good Man
EXTD=
EXTT0=
EXTT1=
EXTT2=
EXTT3=
EXTT4=
EXTT5=
EXTT6=
EXTT7=
EXTT8=
EXTT9=
EXTT10=
EXTT11=
EXTT12=
EXTT13=
EXTT14=
EXTT15=
EXTT16=
EXTT17=
EXTT18=
EXTT19=
EXTT20=
EXTT21=
EXTT22=
EXTT23=
EXTT24=
PLAYORDER=
